<svg width="55" height="55" viewBox="0 0 55 55" fill="none" xmlns="http://www.w3.org/2000/svg">
<circle cx="27.5" cy="27.5" r="27.5" fill="white"/>
<g clip-path="url(#clip0_320_1700)">
<path d="M16.7132 28.7499C16.3008 28.7265 15.982 28.375 16.0008 27.9625L16.0195 27.5875C16.2398 23.1957 19.863 19.7506 24.2595 19.7506H34.3088L31.6184 17.3039C31.3137 17.0274 31.2903 16.5493 31.5668 16.2446C31.8433 15.94 32.3214 15.9165 32.6261 16.1931L36.7508 19.9428C36.9055 20.0834 36.9945 20.285 36.9945 20.4959C36.9945 20.7068 36.9055 20.9083 36.7508 21.049L32.6261 24.7987C32.3214 25.0752 31.8433 25.0565 31.5668 24.7471C31.2903 24.4378 31.309 23.9644 31.6184 23.6878L34.3088 21.2505H24.2595C20.6645 21.2505 17.6975 24.0722 17.5194 27.6625L17.5007 28.0375C17.4819 28.45 17.1257 28.7687 16.7132 28.7499ZM39.2865 27.2501C39.699 27.2688 40.0177 27.625 39.999 28.0375L39.9802 28.4125C39.7599 32.8043 36.1368 36.2494 31.7402 36.2494H21.691L24.3814 38.6961C24.6861 38.9726 24.7095 39.4507 24.433 39.7554C24.1564 40.06 23.6783 40.0835 23.3737 39.8069L19.249 36.0572C19.0943 35.9166 19.0052 35.715 19.0052 35.5041C19.0052 35.2932 19.0943 35.0917 19.249 34.951L23.3737 31.2013C23.6783 30.9248 24.1564 30.9435 24.433 31.2529C24.7095 31.5622 24.6908 32.0356 24.3814 32.3122L21.691 34.7495H31.7402C35.3353 34.7495 38.3022 31.9278 38.4803 28.3375L38.4991 27.9625C38.5178 27.55 38.8741 27.2313 39.2865 27.2501Z" fill="#013A51"/>
</g>
<defs>
<clipPath id="clip0_320_1700">
<rect width="24" height="24" fill="white" transform="translate(16 16)"/>
</clipPath>
</defs>
</svg>
