<svg width="16" height="13" viewBox="0 0 16 13" fill="none" xmlns="http://www.w3.org/2000/svg">
<path d="M0.647929 0.0844392C0.47545 -0.0505441 0.222981 -0.0205478 0.0854981 0.151931C-0.0519849 0.32441 -0.019489 0.576878 0.15299 0.714361L15.3511 12.7129C15.5236 12.8504 15.7761 12.8204 15.9135 12.6479C16.051 12.4754 16.021 12.2229 15.8486 12.0855L0.647929 0.0844392ZM15.1361 6.70612C15.2186 6.50865 15.2186 6.28867 15.1361 6.0912C14.7637 5.19881 13.9813 3.89897 12.8114 2.8141C11.6366 1.71924 10.0193 0.799351 7.99952 0.799351C6.71968 0.799351 5.59982 1.16931 4.65243 1.71924L5.33485 2.25667C6.11475 1.85422 7.00464 1.59925 7.99952 1.59925C9.7593 1.59925 11.1916 2.39915 12.269 3.39903C13.3464 4.39891 14.0663 5.59876 14.3987 6.39866C14.1688 6.95109 13.7513 7.6985 13.1614 8.43591L13.7888 8.93085C14.4287 8.13095 14.8812 7.32105 15.1361 6.70612ZM2.21024 3.86647C1.57031 4.66637 1.11787 5.47627 0.862902 6.0912C0.780412 6.28867 0.780412 6.50865 0.862902 6.70612C1.23536 7.59851 2.01776 8.89835 3.18761 9.98322C4.36247 11.0781 5.97977 11.998 7.99952 11.998C9.27936 11.998 10.3992 11.628 11.3466 11.0781L10.6642 10.5406C9.88429 10.9431 8.9944 11.1981 7.99952 11.1981C6.23974 11.1981 4.80741 10.3982 3.73005 9.39829C2.65268 8.39841 1.93277 7.19856 1.60031 6.39866C1.83028 5.84623 2.24773 5.09882 2.83766 4.36141L2.21024 3.86647ZM7.99952 9.59826C8.41697 9.59826 8.81692 9.51827 9.18437 9.37079L8.41197 8.76087C8.27699 8.78336 8.1395 8.79586 7.99952 8.79586C6.72468 8.79586 5.67981 7.80099 5.60482 6.54364L4.83241 5.93372C4.80991 6.0837 4.79992 6.23868 4.79992 6.39616C4.79992 8.16344 6.23224 9.59576 7.99952 9.59576V9.59826ZM11.1991 6.39866C11.1991 4.63138 9.7668 3.19905 7.99952 3.19905C7.58207 3.19905 7.18212 3.27904 6.81467 3.42653L7.58707 4.03645C7.72205 4.01395 7.85954 4.00146 7.99952 4.00146C9.27436 4.00146 10.3192 4.99633 10.3942 6.25368L11.1666 6.8636C11.1891 6.71362 11.1991 6.55864 11.1991 6.40116V6.39866Z" fill="#666666"/>
</svg>
