<svg width="117" height="117" viewBox="0 0 117 117" fill="none" xmlns="http://www.w3.org/2000/svg">
<circle cx="58.5" cy="58.5" r="54" fill="url(#paint0_linear_261_1700)" stroke="white" stroke-width="9"/>
<path d="M67.5556 43.776C67.5556 44.4955 67.2931 45.6233 66.6417 47.1788C66.0097 48.676 65.1153 50.3288 64.075 52.0108C62.4125 54.7135 60.4875 57.3288 59 59.2441C57.5125 57.3288 55.5875 54.7135 53.925 52.0108C52.8847 50.3288 51.9903 48.676 51.3583 47.1788C50.7069 45.633 50.4444 44.4955 50.4444 43.776C50.4444 39.051 54.275 35.2205 59 35.2205C63.725 35.2205 67.5556 39.051 67.5556 43.776ZM70.6667 43.776C70.6667 37.3302 65.4458 32.1094 59 32.1094C52.5542 32.1094 47.3333 37.3302 47.3333 43.776C47.3333 49.0844 54.4403 58.5441 57.5611 62.4427C58.3097 63.376 59.7 63.376 60.4389 62.4427C63.5597 58.5441 70.6667 49.0844 70.6667 43.776ZM70.2194 53.8483C70.3069 53.8288 70.3847 53.8094 70.4625 53.7705L83.8889 48.4038V73.0594L71.4444 78.0372V61.6649C71.4444 60.8094 70.7444 60.1094 69.8889 60.1094C69.0333 60.1094 68.3333 60.8094 68.3333 61.6649V78.2705L49.6667 72.933V61.6649C49.6667 60.8094 48.9667 60.1094 48.1111 60.1094C47.2556 60.1094 46.5556 60.8094 46.5556 61.6649V73.0594L34.1111 78.0372V53.3816L45.3403 48.8899C44.9611 47.9177 44.6403 46.9066 44.4458 45.8955L32.4681 50.6885C31.5833 51.0483 31 51.9038 31 52.8566V79.1844C31 80.8372 32.6625 81.9649 34.1986 81.3524L48.1986 75.7524L69.4611 81.8288C69.7917 81.926 70.1417 81.9066 70.4625 81.7802L85.5319 75.7524C86.4167 75.4024 87 74.5372 87 73.5844V47.2566C87 45.6038 85.3375 44.476 83.8014 45.0885L72.3389 49.6774C71.7458 51.058 71.0167 52.4774 70.2194 53.8483Z" fill="white"/>
<defs>
<linearGradient id="paint0_linear_261_1700" x1="16" y1="59" x2="108" y2="59" gradientUnits="userSpaceOnUse">
<stop stop-color="#FF0D5A"/>
<stop offset="1" stop-color="#FF743E"/>
</linearGradient>
</defs>
</svg>
