<svg width="32" height="32" viewBox="0 0 32 32" fill="none" xmlns="http://www.w3.org/2000/svg">
<path d="M22 8C22 7.21207 21.8448 6.43185 21.5433 5.7039C21.2417 4.97595 20.7998 4.31451 20.2426 3.75736C19.6855 3.20021 19.0241 2.75825 18.2961 2.45672C17.5681 2.15519 16.7879 2 16 2C15.2121 2 14.4319 2.15519 13.7039 2.45672C12.9759 2.75825 12.3145 3.20021 11.7574 3.75736C11.2002 4.31451 10.7583 4.97595 10.4567 5.7039C10.1552 6.43185 10 7.21207 10 8C10 8.78793 10.1552 9.56815 10.4567 10.2961C10.7583 11.0241 11.2002 11.6855 11.7574 12.2426C12.3145 12.7998 12.9759 13.2417 13.7039 13.5433C14.4319 13.8448 15.2121 14 16 14C16.7879 14 17.5681 13.8448 18.2961 13.5433C19.0241 13.2417 19.6855 12.7998 20.2426 12.2426C20.7998 11.6855 21.2417 11.0241 21.5433 10.2961C21.8448 9.56815 22 8.78793 22 8ZM8 8C8 5.87827 8.84285 3.84344 10.3431 2.34315C11.8434 0.842855 13.8783 0 16 0C18.1217 0 20.1566 0.842855 21.6569 2.34315C23.1571 3.84344 24 5.87827 24 8C24 10.1217 23.1571 12.1566 21.6569 13.6569C20.1566 15.1571 18.1217 16 16 16C13.8783 16 11.8434 15.1571 10.3431 13.6569C8.84285 12.1566 8 10.1217 8 8ZM4 30H28C27.925 25.0187 23.8625 21 18.8563 21H13.1438C8.14375 21 4.08125 25.0187 4 30ZM2 30.1437C2 23.9875 6.9875 19 13.1438 19H18.8563C25.0125 19 30 23.9875 30 30.1437C30 31.1687 29.1687 32 28.1437 32H3.85625C2.83125 32 2 31.1687 2 30.1437Z" fill="#C5C5C5"/>
</svg>
