<svg width="32" height="32" viewBox="0 0 32 32" fill="none" xmlns="http://www.w3.org/2000/svg">
<path d="M4 4C2.89375 4 2 4.89375 2 6V20.5875L6.23125 16.3563C7.20625 15.3813 8.7875 15.3813 9.76875 16.3563L14 20.5875L22.2313 12.3562C23.2063 11.3812 24.7875 11.3812 25.7687 12.3562L30 16.5875V6C30 4.89375 29.1063 4 28 4H4ZM2 23.4125V26C2 27.1063 2.89375 28 4 28H6.5875L12.5875 22L8.35625 17.7687C8.1625 17.575 7.84375 17.575 7.65 17.7687L2 23.4125ZM24.3563 13.7688C24.1625 13.575 23.8438 13.575 23.65 13.7688L9.4125 28H28C29.1063 28 30 27.1063 30 26V19.4125L24.3563 13.7688ZM0 6C0 3.79375 1.79375 2 4 2H28C30.2062 2 32 3.79375 32 6V26C32 28.2062 30.2062 30 28 30H4C1.79375 30 0 28.2062 0 26V6ZM10 9C10 8.73478 9.89464 8.48043 9.70711 8.29289C9.51957 8.10536 9.26522 8 9 8C8.73478 8 8.48043 8.10536 8.29289 8.29289C8.10536 8.48043 8 8.73478 8 9C8 9.26522 8.10536 9.51957 8.29289 9.70711C8.48043 9.89464 8.73478 10 9 10C9.26522 10 9.51957 9.89464 9.70711 9.70711C9.89464 9.51957 10 9.26522 10 9ZM6 9C6 8.20435 6.31607 7.44129 6.87868 6.87868C7.44129 6.31607 8.20435 6 9 6C9.79565 6 10.5587 6.31607 11.1213 6.87868C11.6839 7.44129 12 8.20435 12 9C12 9.79565 11.6839 10.5587 11.1213 11.1213C10.5587 11.6839 9.79565 12 9 12C8.20435 12 7.44129 11.6839 6.87868 11.1213C6.31607 10.5587 6 9.79565 6 9Z" fill="#C5C5C5"/>
</svg>
