<svg width="32" height="32" viewBox="0 0 32 32" fill="none" xmlns="http://www.w3.org/2000/svg">
<path d="M14.8364 2.32727C10.9819 2.32727 7.85462 5.45455 7.85462 9.30909C7.85462 9.94909 7.33098 10.4727 6.69098 10.4727C6.05098 10.4727 5.52734 9.94909 5.52734 9.30909C5.52734 4.16727 9.69462 0 14.8364 0H17.1637C22.3055 0 26.4728 4.16727 26.4728 9.30909C26.4728 11.8764 25.2655 14.2836 23.2146 15.8255L18.7928 19.1418C17.7673 19.9127 17.1637 21.12 17.1637 22.4V23.2727C17.1637 23.9127 16.6401 24.4364 16.0001 24.4364C15.3601 24.4364 14.8364 23.9127 14.8364 23.2727V22.4C14.8364 20.3855 15.7819 18.4873 17.3964 17.28L21.8183 13.9636C23.2801 12.8655 24.1455 11.1418 24.1455 9.30909C24.1455 5.45455 21.0183 2.32727 17.1637 2.32727H14.8364ZM14.2546 30.2545C14.2546 29.7916 14.4385 29.3477 14.7658 29.0203C15.0932 28.693 15.5371 28.5091 16.0001 28.5091C16.463 28.5091 16.907 28.693 17.2343 29.0203C17.5616 29.3477 17.7455 29.7916 17.7455 30.2545C17.7455 30.7175 17.5616 31.1614 17.2343 31.4888C16.907 31.8161 16.463 32 16.0001 32C15.5371 32 15.0932 31.8161 14.7658 31.4888C14.4385 31.1614 14.2546 30.7175 14.2546 30.2545Z" fill="#C5C5C5"/>
</svg>
