<svg width="32" height="32" viewBox="0 0 32 32" fill="none" xmlns="http://www.w3.org/2000/svg">
<path d="M11.9438 2C10.65 2 9.50625 2.825 9.1 4.05L8.44375 6H4C1.79375 6 0 7.79375 0 10V26C0 28.2062 1.79375 30 4 30H28C30.2062 30 32 28.2062 32 26V10C32 7.79375 30.2062 6 28 6H23.5562L22.9062 4.05C22.4937 2.825 21.35 2 20.0562 2H11.9438ZM10.9937 4.68125C11.1312 4.275 11.5125 4 11.9438 4H20.0562C20.4875 4 20.8687 4.275 21.0063 4.68125L21.8813 7.3125C22.0188 7.71875 22.4 7.99375 22.8312 7.99375H28C29.1063 7.99375 30 8.8875 30 9.99375V26C30 27.1063 29.1063 28 28 28H4C2.89375 28 2 27.1063 2 26V10C2 8.89375 2.89375 8 4 8H9.16875C9.6 8 9.98125 7.725 10.1187 7.31875L10.9937 4.6875V4.68125ZM16 25C16.9193 25 17.8295 24.8189 18.6788 24.4672C19.5281 24.1154 20.2997 23.5998 20.9497 22.9497C21.5998 22.2997 22.1154 21.5281 22.4672 20.6788C22.8189 19.8295 23 18.9193 23 18C23 17.0807 22.8189 16.1705 22.4672 15.3212C22.1154 14.4719 21.5998 13.7003 20.9497 13.0503C20.2997 12.4002 19.5281 11.8846 18.6788 11.5328C17.8295 11.1811 16.9193 11 16 11C15.0807 11 14.1705 11.1811 13.3212 11.5328C12.4719 11.8846 11.7003 12.4002 11.0503 13.0503C10.4002 13.7003 9.88463 14.4719 9.53284 15.3212C9.18106 16.1705 9 17.0807 9 18C9 18.9193 9.18106 19.8295 9.53284 20.6788C9.88463 21.5281 10.4002 22.2997 11.0503 22.9497C11.7003 23.5998 12.4719 24.1154 13.3212 24.4672C14.1705 24.8189 15.0807 25 16 25ZM11 18C11 16.6739 11.5268 15.4021 12.4645 14.4645C13.4021 13.5268 14.6739 13 16 13C17.3261 13 18.5979 13.5268 19.5355 14.4645C20.4732 15.4021 21 16.6739 21 18C21 19.3261 20.4732 20.5979 19.5355 21.5355C18.5979 22.4732 17.3261 23 16 23C14.6739 23 13.4021 22.4732 12.4645 21.5355C11.5268 20.5979 11 19.3261 11 18Z" fill="#C5C5C5"/>
</svg>
