<svg width="16" height="16" viewBox="0 0 16 16" fill="none" xmlns="http://www.w3.org/2000/svg">
<path d="M3.25458 4.66696C4.4517 3.55594 6.04323 2.66713 7.99861 2.66713C9.954 2.66713 11.5455 3.55594 12.7426 4.66696C13.9398 5.77797 14.7397 7.11119 15.1091 8C14.7397 8.88881 13.9398 10.222 12.7426 11.333C11.5455 12.4441 9.954 13.3329 7.99861 13.3329C6.04323 13.3329 4.4517 12.4441 3.25458 11.333C2.05746 10.222 1.25753 8.88881 0.888117 8C1.25753 7.11119 2.05746 5.77797 3.25458 4.66696ZM7.99861 1.77832C5.75436 1.77832 3.9573 2.80045 2.64908 4.01701C1.34919 5.22247 0.479819 6.66678 0.068744 7.65837C-0.0229147 7.87779 -0.0229147 8.12221 0.068744 8.34164C0.479819 9.33322 1.34919 10.7775 2.64908 11.983C3.9573 13.1996 5.75436 14.2217 7.99861 14.2217C10.2429 14.2217 12.0399 13.1996 13.3481 11.983C14.648 10.7748 15.5174 9.33322 15.9313 8.34164C16.0229 8.12221 16.0229 7.87779 15.9313 7.65837C15.5174 6.66678 14.648 5.22247 13.3481 4.01701C12.0399 2.80045 10.2429 1.77832 7.99861 1.77832ZM5.33218 8C5.33218 7.29282 5.6131 6.6146 6.11316 6.11455C6.61321 5.61449 7.29143 5.33357 7.99861 5.33357C8.70579 5.33357 9.38401 5.61449 9.88407 6.11455C10.3841 6.6146 10.665 7.29282 10.665 8C10.665 8.70718 10.3841 9.3854 9.88407 9.88546C9.38401 10.3855 8.70579 10.6664 7.99861 10.6664C7.29143 10.6664 6.61321 10.3855 6.11316 9.88546C5.6131 9.3854 5.33218 8.70718 5.33218 8ZM11.5539 8C11.5539 7.05709 11.1793 6.1528 10.5126 5.48606C9.84581 4.81932 8.94152 4.44476 7.99861 4.44476C7.0557 4.44476 6.15141 4.81932 5.48467 5.48606C4.81793 6.1528 4.44336 7.05709 4.44336 8C4.44336 8.94291 4.81793 9.8472 5.48467 10.5139C6.15141 11.1807 7.0557 11.5552 7.99861 11.5552C8.94152 11.5552 9.84581 11.1807 10.5126 10.5139C11.1793 9.8472 11.5539 8.94291 11.5539 8Z" fill="#013A51"/>
</svg>
