<svg width="16" height="16" viewBox="0 0 16 16" fill="none" xmlns="http://www.w3.org/2000/svg">
<g clip-path="url(#clip0_128_2995)">
<path d="M12.3825 1.22097C12.6765 0.926874 13.1521 0.926874 13.4431 1.22097L14.7759 2.55379C15.07 2.84789 15.07 3.32345 14.7759 3.61442L13.0645 5.33207L10.6679 2.93549L12.3825 1.22097ZM9.96085 3.64258L12.3574 6.03915L4.99249 13.401C4.75471 13.6387 4.46374 13.8108 4.14148 13.9047L1.23806 14.7619L2.09219 11.8585C2.18605 11.5363 2.36126 11.2453 2.59591 11.0075L9.96085 3.64258ZM14.1533 0.513887C13.4681 -0.171296 12.3606 -0.171296 11.6754 0.513887L1.88883 10.2973C1.53216 10.654 1.27247 11.092 1.13168 11.5738L0.0209989 15.3595C-0.0321888 15.5347 0.0178702 15.7256 0.146147 15.8539C0.274423 15.9821 0.465273 16.0322 0.64048 15.979L4.42619 14.8652C4.90801 14.7244 5.34603 14.4616 5.7027 14.108L15.4861 4.32463C16.1713 3.63945 16.1713 2.53189 15.4861 1.84671L14.1533 0.513887Z" fill="#708090"/>
</g>
<defs>
<clipPath id="clip0_128_2995">
<rect width="16" height="16" fill="white"/>
</clipPath>
</defs>
</svg>