<svg width="191" height="50" viewBox="0 0 191 50" fill="none" xmlns="http://www.w3.org/2000/svg">
<path d="M17.886 16.2253C18.0332 16.7661 18.1068 17.4422 18.1068 18.2534C18.1068 19.0309 18.0332 19.7069 17.886 20.2816C18.0332 20.8224 18.1068 21.4985 18.1068 22.3097C18.1068 23.0872 18.0332 23.7633 17.886 24.3379H15.6779C15.8251 24.8787 15.8987 25.5548 15.8987 26.3661C15.8987 27.1435 15.8251 27.8196 15.6779 28.3942H2.42896C2.28175 27.8196 2.20815 27.1435 2.20815 26.3661C2.20815 25.5548 2.28175 24.8787 2.42896 24.3379H0.220815C0.073605 23.7633 0 23.0872 0 22.3097C0 21.4985 0.073605 20.8224 0.220815 20.2816H4.63711C4.78432 20.8224 4.85793 21.4985 4.85793 22.3097C4.85793 23.0872 4.78432 23.7633 4.63711 24.3379H13.4697C13.3225 23.7633 13.2489 23.0872 13.2489 22.3097C13.2489 21.4985 13.3225 20.8224 13.4697 20.2816C13.3225 19.7069 13.2489 19.0309 13.2489 18.2534C13.2489 17.4422 13.3225 16.7661 13.4697 16.2253H2.42896C2.28175 15.6506 2.20815 14.9746 2.20815 14.1971C2.20815 13.3858 2.28175 12.7098 2.42896 12.1689H0.220815C0.073605 11.5943 0 10.9183 0 10.1408C0 9.32953 0.073605 8.65347 0.220815 8.11263C0.073605 7.53799 0 6.86193 0 6.08447C0 5.27321 0.073605 4.59716 0.220815 4.05632H2.42896C2.28175 3.48167 2.20815 2.80562 2.20815 2.02816C2.20815 1.21689 2.28175 0.540841 2.42896 0H15.6779C15.8251 0.540841 15.8987 1.21689 15.8987 2.02816C15.8987 2.80562 15.8251 3.48167 15.6779 4.05632H17.886C18.0332 4.59716 18.1068 5.27321 18.1068 6.08447C18.1068 6.86193 18.0332 7.53799 17.886 8.11263H13.4697C13.3225 7.53799 13.2489 6.86193 13.2489 6.08447C13.2489 5.27321 13.3225 4.59716 13.4697 4.05632H4.63711C4.78432 4.59716 4.85793 5.27321 4.85793 6.08447C4.85793 6.86193 4.78432 7.53799 4.63711 8.11263C4.78432 8.65347 4.85793 9.32953 4.85793 10.1408C4.85793 10.9183 4.78432 11.5943 4.63711 12.1689H15.6779C15.8251 12.7098 15.8987 13.3858 15.8987 14.1971C15.8987 14.9746 15.8251 15.6506 15.6779 16.2253H17.886Z" fill="black"/>
<path d="M40.2099 2.02816C40.2099 2.80562 40.1363 3.48167 39.9891 4.05632H33.3646C33.5118 4.59716 33.5854 5.27321 33.5854 6.08447C33.5854 6.86193 33.5118 7.53799 33.3646 8.11263C33.5118 8.65347 33.5854 9.32953 33.5854 10.1408C33.5854 10.9183 33.5118 11.5943 33.3646 12.1689C33.5118 12.7098 33.5854 13.3858 33.5854 14.1971C33.5854 14.9746 33.5118 15.6506 33.3646 16.2253C33.5118 16.7661 33.5854 17.4422 33.5854 18.2534C33.5854 19.0309 33.5118 19.7069 33.3646 20.2816C33.5118 20.8224 33.5854 21.4985 33.5854 22.3097C33.5854 23.0872 33.5118 23.7633 33.3646 24.3379C33.5118 24.8787 33.5854 25.5548 33.5854 26.3661C33.5854 27.1435 33.5118 27.8196 33.3646 28.3942H28.9483C28.8011 27.8196 28.7275 27.1435 28.7275 26.3661C28.7275 25.5548 28.8011 24.8787 28.9483 24.3379C28.8011 23.7633 28.7275 23.0872 28.7275 22.3097C28.7275 21.4985 28.8011 20.8224 28.9483 20.2816C28.8011 19.7069 28.7275 19.0309 28.7275 18.2534C28.7275 17.4422 28.8011 16.7661 28.9483 16.2253C28.8011 15.6506 28.7275 14.9746 28.7275 14.1971C28.7275 13.3858 28.8011 12.7098 28.9483 12.1689C28.8011 11.5943 28.7275 10.9183 28.7275 10.1408C28.7275 9.32953 28.8011 8.65347 28.9483 8.11263C28.8011 7.53799 28.7275 6.86193 28.7275 6.08447C28.7275 5.27321 28.8011 4.59716 28.9483 4.05632H22.3239C22.1767 3.48167 22.1031 2.80562 22.1031 2.02816C22.1031 1.21689 22.1767 0.540841 22.3239 0H39.9891C40.1363 0.540841 40.2099 1.21689 40.2099 2.02816Z" fill="black"/>
<path d="M62.0921 24.3379C62.2393 24.8787 62.313 25.5548 62.313 26.3661C62.313 27.1435 62.2393 27.8196 62.0921 28.3942H57.6758C57.5286 27.8196 57.455 27.1435 57.455 26.3661C57.455 25.5548 57.5286 24.8787 57.6758 24.3379H56.0197C55.8725 23.7633 55.7989 23.0872 55.7989 22.3097C55.7989 21.4985 55.8725 20.8224 56.0197 20.2816H54.3636C54.2164 19.7069 54.1428 19.0309 54.1428 18.2534C54.1428 17.4422 54.2164 16.7661 54.3636 16.2253H48.8432C48.9904 16.7661 49.0641 17.4422 49.0641 18.2534C49.0641 19.0309 48.9904 19.7069 48.8432 20.2816C48.9904 20.8224 49.0641 21.4985 49.0641 22.3097C49.0641 23.0872 48.9904 23.7633 48.8432 24.3379C48.9904 24.8787 49.0641 25.5548 49.0641 26.3661C49.0641 27.1435 48.9904 27.8196 48.8432 28.3942H44.4269C44.2797 27.8196 44.2061 27.1435 44.2061 26.3661C44.2061 25.5548 44.2797 24.8787 44.4269 24.3379C44.2797 23.7633 44.2061 23.0872 44.2061 22.3097C44.2061 21.4985 44.2797 20.8224 44.4269 20.2816C44.2797 19.7069 44.2061 19.0309 44.2061 18.2534C44.2061 17.4422 44.2797 16.7661 44.4269 16.2253C44.2797 15.6506 44.2061 14.9746 44.2061 14.1971C44.2061 13.3858 44.2797 12.7098 44.4269 12.1689C44.2797 11.5943 44.2061 10.9183 44.2061 10.1408C44.2061 9.32953 44.2797 8.65347 44.4269 8.11263C44.2797 7.53799 44.2061 6.86193 44.2061 6.08447C44.2061 5.27321 44.2797 4.59716 44.4269 4.05632C44.2797 3.48167 44.2061 2.80562 44.2061 2.02816C44.2061 1.21689 44.2797 0.540841 44.4269 0H59.884C60.0312 0.540841 60.1048 1.21689 60.1048 2.02816C60.1048 2.80562 60.0312 3.48167 59.884 4.05632H62.0921C62.2393 4.59716 62.313 5.27321 62.313 6.08447C62.313 6.86193 62.2393 7.53799 62.0921 8.11263H60.9881C61.1353 8.65347 61.2089 9.32953 61.2089 10.1408C61.2089 10.9183 61.1353 11.5943 60.9881 12.1689H57.6758C57.823 12.7098 57.8967 13.3858 57.8967 14.1971C57.8967 14.9746 57.823 15.6506 57.6758 16.2253H58.7799C58.9271 16.7661 59.0007 17.4422 59.0007 18.2534C59.0007 19.0309 58.9271 19.7069 58.7799 20.2816H60.436C60.5832 20.8224 60.6568 21.4985 60.6568 22.3097C60.6568 23.0872 60.5832 23.7633 60.436 24.3379H62.0921ZM56.5718 12.1689C56.4245 11.5943 56.3509 10.9183 56.3509 10.1408C56.3509 9.32953 56.4245 8.65347 56.5718 8.11263C56.4245 7.53799 56.3509 6.86193 56.3509 6.08447C56.3509 5.27321 56.4245 4.59716 56.5718 4.05632H48.8432C48.9904 4.59716 49.0641 5.27321 49.0641 6.08447C49.0641 6.86193 48.9904 7.53799 48.8432 8.11263C48.9904 8.65347 49.0641 9.32953 49.0641 10.1408C49.0641 10.9183 48.9904 11.5943 48.8432 12.1689H56.5718Z" fill="black"/>
<path d="M73.1544 16.2253C73.3017 16.7661 73.3753 17.4422 73.3753 18.2534C73.3753 19.0309 73.3017 19.7069 73.1544 20.2816C73.3017 20.8224 73.3753 21.4985 73.3753 22.3097C73.3753 23.0872 73.3017 23.7633 73.1544 24.3379H81.987C82.1343 24.8787 82.2079 25.5548 82.2079 26.3661C82.2079 27.1435 82.1343 27.8196 81.987 28.3942H68.7382C68.5909 27.8196 68.5173 27.1435 68.5173 26.3661C68.5173 25.5548 68.5909 24.8787 68.7382 24.3379C68.5909 23.7633 68.5173 23.0872 68.5173 22.3097C68.5173 21.4985 68.5909 20.8224 68.7382 20.2816C68.5909 19.7069 68.5173 19.0309 68.5173 18.2534C68.5173 17.4422 68.5909 16.7661 68.7382 16.2253C68.5909 15.6506 68.5173 14.9746 68.5173 14.1971C68.5173 13.3858 68.5909 12.7098 68.7382 12.1689C68.5909 11.5943 68.5173 10.9183 68.5173 10.1408C68.5173 9.32953 68.5909 8.65347 68.7382 8.11263C68.5909 7.53799 68.5173 6.86193 68.5173 6.08447C68.5173 5.27321 68.5909 4.59716 68.7382 4.05632C68.5909 3.48167 68.5173 2.80562 68.5173 2.02816C68.5173 1.21689 68.5909 0.540841 68.7382 0H81.987C82.1343 0.540841 82.2079 1.21689 82.2079 2.02816C82.2079 2.80562 82.1343 3.48167 81.987 4.05632H73.1544C73.3017 4.59716 73.3753 5.27321 73.3753 6.08447C73.3753 6.86193 73.3017 7.53799 73.1544 8.11263C73.3017 8.65347 73.3753 9.32953 73.3753 10.1408C73.3753 10.9183 73.3017 11.5943 73.1544 12.1689H81.987C82.1343 12.7098 82.2079 13.3858 82.2079 14.1971C82.2079 14.9746 82.1343 15.6506 81.987 16.2253H73.1544Z" fill="black"/>
<path d="M95.2575 16.2253C95.4047 16.7661 95.4783 17.4422 95.4783 18.2534C95.4783 19.0309 95.4047 19.7069 95.2575 20.2816C95.4047 20.8224 95.4783 21.4985 95.4783 22.3097C95.4783 23.0872 95.4047 23.7633 95.2575 24.3379H104.09C104.237 24.8787 104.311 25.5548 104.311 26.3661C104.311 27.1435 104.237 27.8196 104.09 28.3942H90.8412C90.694 27.8196 90.6204 27.1435 90.6204 26.3661C90.6204 25.5548 90.694 24.8787 90.8412 24.3379C90.694 23.7633 90.6204 23.0872 90.6204 22.3097C90.6204 21.4985 90.694 20.8224 90.8412 20.2816C90.694 19.7069 90.6204 19.0309 90.6204 18.2534C90.6204 17.4422 90.694 16.7661 90.8412 16.2253C90.694 15.6506 90.6204 14.9746 90.6204 14.1971C90.6204 13.3858 90.694 12.7098 90.8412 12.1689C90.694 11.5943 90.6204 10.9183 90.6204 10.1408C90.6204 9.32953 90.694 8.65347 90.8412 8.11263C90.694 7.53799 90.6204 6.86193 90.6204 6.08447C90.6204 5.27321 90.694 4.59716 90.8412 4.05632C90.694 3.48167 90.6204 2.80562 90.6204 2.02816C90.6204 1.21689 90.694 0.540841 90.8412 0H104.09C104.237 0.540841 104.311 1.21689 104.311 2.02816C104.311 2.80562 104.237 3.48167 104.09 4.05632H95.2575C95.4047 4.59716 95.4783 5.27321 95.4783 6.08447C95.4783 6.86193 95.4047 7.53799 95.2575 8.11263C95.4047 8.65347 95.4783 9.32953 95.4783 10.1408C95.4783 10.9183 95.4047 11.5943 95.2575 12.1689H104.09C104.237 12.7098 104.311 13.3858 104.311 14.1971C104.311 14.9746 104.237 15.6506 104.09 16.2253H95.2575Z" fill="black"/>
<path d="M128.622 2.02816C128.622 2.80562 128.549 3.48167 128.401 4.05632H121.777C121.924 4.59716 121.998 5.27321 121.998 6.08447C121.998 6.86193 121.924 7.53799 121.777 8.11263C121.924 8.65347 121.998 9.32953 121.998 10.1408C121.998 10.9183 121.924 11.5943 121.777 12.1689C121.924 12.7098 121.998 13.3858 121.998 14.1971C121.998 14.9746 121.924 15.6506 121.777 16.2253C121.924 16.7661 121.998 17.4422 121.998 18.2534C121.998 19.0309 121.924 19.7069 121.777 20.2816C121.924 20.8224 121.998 21.4985 121.998 22.3097C121.998 23.0872 121.924 23.7633 121.777 24.3379C121.924 24.8787 121.998 25.5548 121.998 26.3661C121.998 27.1435 121.924 27.8196 121.777 28.3942H117.361C117.213 27.8196 117.14 27.1435 117.14 26.3661C117.14 25.5548 117.213 24.8787 117.361 24.3379C117.213 23.7633 117.14 23.0872 117.14 22.3097C117.14 21.4985 117.213 20.8224 117.361 20.2816C117.213 19.7069 117.14 19.0309 117.14 18.2534C117.14 17.4422 117.213 16.7661 117.361 16.2253C117.213 15.6506 117.14 14.9746 117.14 14.1971C117.14 13.3858 117.213 12.7098 117.361 12.1689C117.213 11.5943 117.14 10.9183 117.14 10.1408C117.14 9.32953 117.213 8.65347 117.361 8.11263C117.213 7.53799 117.14 6.86193 117.14 6.08447C117.14 5.27321 117.213 4.59716 117.361 4.05632H110.736C110.589 3.48167 110.515 2.80562 110.515 2.02816C110.515 1.21689 110.589 0.540841 110.736 0H128.401C128.549 0.540841 128.622 1.21689 128.622 2.02816Z" fill="black"/>
<path d="M147.086 22.3097C147.086 23.0872 147.012 23.7633 146.866 24.3379C147.012 24.8787 147.086 25.5548 147.086 26.3661C147.086 27.1435 147.012 27.8196 146.866 28.3942H142.479C142.333 27.8196 142.26 27.1435 142.26 26.3661C142.26 25.5548 142.333 24.8787 142.479 24.3379C142.333 23.7633 142.26 23.0872 142.26 22.3097C142.26 21.4985 142.333 20.8224 142.479 20.2816H133.704C133.851 20.8224 133.924 21.4985 133.924 22.3097C133.924 23.0872 133.851 23.7633 133.704 24.3379C133.851 24.8787 133.924 25.5548 133.924 26.3661C133.924 27.1435 133.851 27.8196 133.704 28.3942H129.317C129.171 27.8196 129.098 27.1435 129.098 26.3661C129.098 25.5548 129.171 24.8787 129.317 24.3379C129.171 23.7633 129.098 23.0872 129.098 22.3097C129.098 21.4985 129.171 20.8224 129.317 20.2816H130.962C130.816 19.7069 130.743 19.0309 130.743 18.2534C130.743 17.4422 130.816 16.7661 130.962 16.2253C130.816 15.6506 130.743 14.9746 130.743 14.1971C130.743 13.3858 130.816 12.7098 130.962 12.1689H132.059C131.913 11.5943 131.84 10.9183 131.84 10.1408C131.84 9.32953 131.913 8.65347 132.059 8.11263H133.704C133.558 7.53799 133.485 6.86193 133.485 6.08447C133.485 5.27321 133.558 4.59716 133.704 4.05632H134.801C134.655 3.48167 134.582 2.80562 134.582 2.02816C134.582 1.21689 134.655 0.540841 134.801 0H141.382C141.528 0.540841 141.601 1.21689 141.601 2.02816C141.601 2.80562 141.528 3.48167 141.382 4.05632H142.479C142.625 4.59716 142.698 5.27321 142.698 6.08447C142.698 6.86193 142.625 7.53799 142.479 8.11263H144.124C144.27 8.65347 144.344 9.32953 144.344 10.1408C144.344 10.9183 144.27 11.5943 144.124 12.1689H145.221C145.367 12.7098 145.44 13.3858 145.44 14.1971C145.44 14.9746 145.367 15.6506 145.221 16.2253C145.367 16.7661 145.44 17.4422 145.44 18.2534C145.44 19.0309 145.367 19.7069 145.221 20.2816H146.866C147.012 20.8224 147.086 21.4985 147.086 22.3097ZM140.834 16.2253C140.687 15.6506 140.614 14.9746 140.614 14.1971C140.614 13.3858 140.687 12.7098 140.834 12.1689H139.737C139.591 11.5943 139.517 10.9183 139.517 10.1408C139.517 9.32953 139.591 8.65347 139.737 8.11263H136.446C136.593 8.65347 136.666 9.32953 136.666 10.1408C136.666 10.9183 136.593 11.5943 136.446 12.1689H135.35C135.496 12.7098 135.569 13.3858 135.569 14.1971C135.569 14.9746 135.496 15.6506 135.35 16.2253H140.834Z" fill="url(#paint0_linear_616_3777)"/>
<path d="M168.824 24.3379C168.97 24.8787 169.043 25.5548 169.043 26.3661C169.043 27.1435 168.97 27.8196 168.824 28.3942H164.437C164.291 27.8196 164.217 27.1435 164.217 26.3661C164.217 25.5548 164.291 24.8787 164.437 24.3379H162.792C162.645 23.7633 162.572 23.0872 162.572 22.3097C162.572 21.4985 162.645 20.8224 162.792 20.2816H161.146C161 19.7069 160.927 19.0309 160.927 18.2534C160.927 17.4422 161 16.7661 161.146 16.2253H155.662C155.808 16.7661 155.882 17.4422 155.882 18.2534C155.882 19.0309 155.808 19.7069 155.662 20.2816C155.808 20.8224 155.882 21.4985 155.882 22.3097C155.882 23.0872 155.808 23.7633 155.662 24.3379C155.808 24.8787 155.882 25.5548 155.882 26.3661C155.882 27.1435 155.808 27.8196 155.662 28.3942H151.275C151.129 27.8196 151.056 27.1435 151.056 26.3661C151.056 25.5548 151.129 24.8787 151.275 24.3379C151.129 23.7633 151.056 23.0872 151.056 22.3097C151.056 21.4985 151.129 20.8224 151.275 20.2816C151.129 19.7069 151.056 19.0309 151.056 18.2534C151.056 17.4422 151.129 16.7661 151.275 16.2253C151.129 15.6506 151.056 14.9746 151.056 14.1971C151.056 13.3858 151.129 12.7098 151.275 12.1689C151.129 11.5943 151.056 10.9183 151.056 10.1408C151.056 9.32953 151.129 8.65347 151.275 8.11263C151.129 7.53799 151.056 6.86193 151.056 6.08447C151.056 5.27321 151.129 4.59716 151.275 4.05632C151.129 3.48167 151.056 2.80562 151.056 2.02816C151.056 1.21689 151.129 0.540841 151.275 0H166.63C166.777 0.540841 166.85 1.21689 166.85 2.02816C166.85 2.80562 166.777 3.48167 166.63 4.05632H168.824C168.97 4.59716 169.043 5.27321 169.043 6.08447C169.043 6.86193 168.97 7.53799 168.824 8.11263H167.727C167.874 8.65347 167.947 9.32953 167.947 10.1408C167.947 10.9183 167.874 11.5943 167.727 12.1689H164.437C164.583 12.7098 164.656 13.3858 164.656 14.1971C164.656 14.9746 164.583 15.6506 164.437 16.2253H165.534C165.68 16.7661 165.753 17.4422 165.753 18.2534C165.753 19.0309 165.68 19.7069 165.534 20.2816H167.179C167.325 20.8224 167.398 21.4985 167.398 22.3097C167.398 23.0872 167.325 23.7633 167.179 24.3379H168.824ZM163.34 12.1689C163.194 11.5943 163.121 10.9183 163.121 10.1408C163.121 9.32953 163.194 8.65347 163.34 8.11263C163.194 7.53799 163.121 6.86193 163.121 6.08447C163.121 5.27321 163.194 4.59716 163.34 4.05632H155.662C155.808 4.59716 155.882 5.27321 155.882 6.08447C155.882 6.86193 155.808 7.53799 155.662 8.11263C155.808 8.65347 155.882 9.32953 155.882 10.1408C155.882 10.9183 155.808 11.5943 155.662 12.1689H163.34Z" fill="url(#paint1_linear_616_3777)"/>
<path d="M191.001 2.02816C191.001 2.80562 190.928 3.48167 190.782 4.05632H184.201C184.347 4.59716 184.42 5.27321 184.42 6.08447C184.42 6.86193 184.347 7.53799 184.201 8.11263C184.347 8.65347 184.42 9.32953 184.42 10.1408C184.42 10.9183 184.347 11.5943 184.201 12.1689C184.347 12.7098 184.42 13.3858 184.42 14.1971C184.42 14.9746 184.347 15.6506 184.201 16.2253C184.347 16.7661 184.42 17.4422 184.42 18.2534C184.42 19.0309 184.347 19.7069 184.201 20.2816C184.347 20.8224 184.42 21.4985 184.42 22.3097C184.42 23.0872 184.347 23.7633 184.201 24.3379C184.347 24.8787 184.42 25.5548 184.42 26.3661C184.42 27.1435 184.347 27.8196 184.201 28.3942H179.814C179.668 27.8196 179.594 27.1435 179.594 26.3661C179.594 25.5548 179.668 24.8787 179.814 24.3379C179.668 23.7633 179.594 23.0872 179.594 22.3097C179.594 21.4985 179.668 20.8224 179.814 20.2816C179.668 19.7069 179.594 19.0309 179.594 18.2534C179.594 17.4422 179.668 16.7661 179.814 16.2253C179.668 15.6506 179.594 14.9746 179.594 14.1971C179.594 13.3858 179.668 12.7098 179.814 12.1689C179.668 11.5943 179.594 10.9183 179.594 10.1408C179.594 9.32953 179.668 8.65347 179.814 8.11263C179.668 7.53799 179.594 6.86193 179.594 6.08447C179.594 5.27321 179.668 4.59716 179.814 4.05632H173.233C173.087 3.48167 173.013 2.80562 173.013 2.02816C173.013 1.21689 173.087 0.540841 173.233 0H190.782C190.928 0.540841 191.001 1.21689 191.001 2.02816Z" fill="url(#paint2_linear_616_3777)"/>
<rect width="58.5713" height="12.0911" transform="matrix(0.999688 -0.024987 0.0296874 0.999559 61.3867 31.8564)" fill="white"/>
<path fill-rule="evenodd" clip-rule="evenodd" d="M60.9948 31.8649C58.7864 31.9201 57.0493 33.7549 57.1148 35.9631L57.413 46.001C57.4786 48.2092 59.322 49.9545 61.5305 49.8993L117.97 48.4886C120.179 48.4334 121.916 46.5986 121.85 44.3904L121.552 34.3525C121.487 32.1443 119.643 30.399 117.435 30.4542L60.9948 31.8649ZM63.8548 44.7445C63.9177 44.7991 63.9971 44.8252 64.0932 44.8228L65.7839 44.7805C65.88 44.7781 65.9578 44.7481 66.0173 44.6905C66.0768 44.6329 66.1052 44.56 66.1026 44.4718L66.0137 41.4781L69.2509 41.3972L69.3398 44.3909C69.3424 44.479 69.3751 44.5504 69.438 44.605C69.5008 44.6596 69.5802 44.6857 69.6764 44.6833L71.367 44.641C71.4631 44.6386 71.5409 44.6086 71.6004 44.5509C71.6599 44.4933 71.6884 44.4204 71.6857 44.3322L71.4536 36.5173C71.451 36.4292 71.4183 36.3578 71.3555 36.3032C71.2926 36.2486 71.2132 36.2225 71.1171 36.2249L69.4264 36.2672C69.3303 36.2696 69.2525 36.2996 69.193 36.3573C69.1335 36.4149 69.1051 36.4878 69.1077 36.576L69.1937 39.4735L65.9566 39.5544L65.8705 36.6569C65.8679 36.5687 65.8352 36.4973 65.7723 36.4428C65.7095 36.3882 65.63 36.3621 65.5339 36.3645L63.8433 36.4067C63.7472 36.4091 63.6694 36.4392 63.6099 36.4968C63.5504 36.5544 63.5219 36.6273 63.5246 36.7155L63.7567 44.5304C63.7593 44.6186 63.792 44.69 63.8548 44.7445ZM75.2936 44.3143C75.8946 44.5318 76.5883 44.6308 77.3746 44.6112C78.1697 44.5913 78.8565 44.4578 79.435 44.2107C80.0133 43.9556 80.4568 43.5796 80.7655 43.0826C81.0741 42.5776 81.217 41.9443 81.1944 41.1829L81.0487 36.2775C81.0461 36.1893 81.009 36.1181 80.9374 36.0637C80.8746 36.0091 80.7995 35.9829 80.7121 35.9851L79.0084 36.0277C78.921 36.0299 78.8432 36.0599 78.775 36.1178C78.7155 36.1754 78.687 36.2483 78.6896 36.3365L78.835 41.2298C78.8505 41.7508 78.7223 42.147 78.4506 42.4185C78.1873 42.6818 77.8111 42.8195 77.3218 42.8318C76.8238 42.8442 76.4312 42.7257 76.1439 42.4762C75.8652 42.2184 75.7181 41.8291 75.7027 41.3081L75.5573 36.4148C75.5547 36.3266 75.522 36.2552 75.4592 36.2006C75.3963 36.1461 75.3169 36.12 75.2208 36.1224L73.5301 36.1646C73.434 36.167 73.3562 36.197 73.2967 36.2547C73.2372 36.3123 73.2087 36.3852 73.2114 36.4734L73.3571 41.3787C73.3797 42.1402 73.56 42.7654 73.898 43.2542C74.2358 43.7351 74.701 44.0884 75.2936 44.3143ZM83.3554 44.3414C83.2592 44.3438 83.1798 44.3177 83.117 44.2631C83.0541 44.2085 83.0214 44.1371 83.0188 44.049L82.7867 36.2341C82.7841 36.1459 82.8125 36.073 82.872 36.0153C82.9315 35.9577 83.0093 35.9277 83.1054 35.9253L84.4946 35.8906C84.6432 35.8869 84.749 35.9163 84.812 35.9789C84.8836 36.0332 84.9286 36.0762 84.947 36.1079L88.2823 40.6568L88.147 36.1001C88.1444 36.0119 88.1728 35.939 88.2323 35.8814C88.2918 35.8237 88.3696 35.7937 88.4657 35.7913L90.0384 35.752C90.1345 35.7496 90.214 35.7757 90.2768 35.8303C90.3397 35.8848 90.3724 35.9562 90.375 36.0444L90.6071 43.8593C90.6095 43.9395 90.5811 44.0124 90.5218 44.078C90.4623 44.1356 90.3845 44.1657 90.2884 44.1681L88.8861 44.2031C88.7463 44.2066 88.6405 44.1772 88.5687 44.1148C88.5056 44.0522 88.465 44.0091 88.4468 43.9855L85.1168 39.6169L85.2468 43.9933C85.2494 44.0814 85.221 44.1544 85.1615 44.212C85.102 44.2696 85.0242 44.2996 84.9281 44.302L83.3554 44.3414ZM94.5551 43.9772C94.618 44.0318 94.6974 44.0579 94.7936 44.0555L96.5235 44.0122C96.6196 44.0098 96.6975 43.9798 96.7569 43.9222C96.8164 43.8645 96.8449 43.7916 96.8423 43.7035L96.6573 37.4756L98.9901 37.4173C99.0863 37.4149 99.1641 37.3848 99.2236 37.3272C99.2828 37.2615 99.3112 37.1886 99.3089 37.1085L99.2707 35.822C99.268 35.7339 99.2353 35.6625 99.1725 35.6079C99.1097 35.5533 99.0302 35.5273 98.9341 35.5297L91.8831 35.7059C91.787 35.7083 91.7092 35.7383 91.6497 35.796C91.5902 35.8536 91.5618 35.9265 91.5644 36.0147L91.6026 37.3011C91.605 37.3813 91.6377 37.4526 91.7007 37.5152C91.7636 37.5698 91.843 37.5959 91.9392 37.5935L94.272 37.5352L94.457 43.7631C94.4596 43.8512 94.4923 43.9226 94.5551 43.9772ZM101.03 43.8996C100.934 43.902 100.855 43.8759 100.792 43.8213C100.729 43.7667 100.696 43.6954 100.694 43.6072L100.462 35.7923C100.459 35.7041 100.488 35.6312 100.547 35.5736C100.607 35.5159 100.684 35.4859 100.78 35.4835L106.901 35.3305C106.997 35.3281 107.077 35.3542 107.139 35.4088C107.202 35.4634 107.235 35.5347 107.238 35.6229L107.271 36.7531C107.274 36.8412 107.245 36.9141 107.186 36.9718C107.126 37.0294 107.048 37.0594 106.952 37.0618L102.772 37.1663L102.82 38.7894L106.712 38.6921C106.808 38.6897 106.888 38.7198 106.951 38.7824C107.014 38.837 107.047 38.9084 107.049 38.9965L107.08 40.0425C107.083 40.1227 107.054 40.1956 106.995 40.2612C106.935 40.3189 106.858 40.3489 106.762 40.3513L102.869 40.4486L102.919 42.1198L107.204 42.0127C107.3 42.0103 107.38 42.0363 107.443 42.0909C107.506 42.1455 107.538 42.2169 107.541 42.305L107.574 43.4352C107.577 43.5234 107.549 43.5963 107.489 43.6539C107.43 43.7115 107.352 43.7416 107.256 43.744L101.03 43.8996ZM109.162 43.6121C109.225 43.6667 109.305 43.6928 109.401 43.6904L111.091 43.6481C111.188 43.6457 111.265 43.6157 111.325 43.558C111.384 43.5004 111.413 43.4275 111.41 43.3393L111.331 40.6702L112.681 40.6365L114.253 43.2442C114.29 43.3074 114.349 43.3782 114.43 43.4564C114.511 43.5265 114.634 43.5595 114.8 43.5554L116.53 43.5121C116.609 43.5102 116.674 43.4845 116.725 43.4351C116.784 43.3775 116.813 43.3166 116.811 43.2525C116.81 43.2124 116.796 43.1686 116.768 43.1212L114.872 40.2087C115.355 39.9961 115.739 39.6897 116.025 39.2896C116.319 38.8892 116.457 38.4044 116.441 37.8354C116.415 36.9617 116.067 36.2966 115.398 35.8401C114.737 35.3753 113.843 35.157 112.716 35.1852L109.151 35.2743C109.055 35.2767 108.977 35.3067 108.917 35.3643C108.858 35.422 108.83 35.4949 108.832 35.5831L109.064 43.398C109.067 43.4861 109.1 43.5575 109.162 43.6121ZM112.801 38.937L111.281 38.975L111.219 36.895L112.739 36.857C113.167 36.8463 113.48 36.9348 113.678 37.1223C113.885 37.3097 113.993 37.5596 114.002 37.8722C114.012 38.1928 113.914 38.4479 113.71 38.6375C113.515 38.8269 113.212 38.9267 112.801 38.937Z" fill="url(#paint3_linear_616_3777)"/>
<defs>
<linearGradient id="paint0_linear_616_3777" x1="133.475" y1="14.3405" x2="191.001" y2="14.3405" gradientUnits="userSpaceOnUse">
<stop stop-color="#FF0D5A"/>
<stop offset="1" stop-color="#FF743E"/>
</linearGradient>
<linearGradient id="paint1_linear_616_3777" x1="133.475" y1="14.3405" x2="191.001" y2="14.3405" gradientUnits="userSpaceOnUse">
<stop stop-color="#FF0D5A"/>
<stop offset="1" stop-color="#FF743E"/>
</linearGradient>
<linearGradient id="paint2_linear_616_3777" x1="133.475" y1="14.3405" x2="191.001" y2="14.3405" gradientUnits="userSpaceOnUse">
<stop stop-color="#FF0D5A"/>
<stop offset="1" stop-color="#FF743E"/>
</linearGradient>
<linearGradient id="paint3_linear_616_3777" x1="61.8228" y1="40.9593" x2="121.696" y2="39.181" gradientUnits="userSpaceOnUse">
<stop stop-color="#FF0D5A"/>
<stop offset="1" stop-color="#FF743E"/>
</linearGradient>
</defs>
</svg>
